%TF.GenerationSoftware,KiCad,Pcbnew,(6.0.6)*%
%TF.CreationDate,2022-07-17T10:27:07+05:30*%
%TF.ProjectId,transimpedanceAmplifier,7472616e-7369-46d7-9065-64616e636541,rev?*%
%TF.SameCoordinates,Original*%
%TF.FileFunction,Copper,L2,Bot*%
%TF.FilePolarity,Positive*%
%FSLAX46Y46*%
G04 Gerber Fmt 4.6, Leading zero omitted, Abs format (unit mm)*
G04 Created by KiCad (PCBNEW (6.0.6)) date 2022-07-17 10:27:07*
%MOMM*%
%LPD*%
G01*
G04 APERTURE LIST*
G04 Aperture macros list*
%AMRoundRect*
0 Rectangle with rounded corners*
0 $1 Rounding radius*
0 $2 $3 $4 $5 $6 $7 $8 $9 X,Y pos of 4 corners*
0 Add a 4 corners polygon primitive as box body*
4,1,4,$2,$3,$4,$5,$6,$7,$8,$9,$2,$3,0*
0 Add four circle primitives for the rounded corners*
1,1,$1+$1,$2,$3*
1,1,$1+$1,$4,$5*
1,1,$1+$1,$6,$7*
1,1,$1+$1,$8,$9*
0 Add four rect primitives between the rounded corners*
20,1,$1+$1,$2,$3,$4,$5,0*
20,1,$1+$1,$4,$5,$6,$7,0*
20,1,$1+$1,$6,$7,$8,$9,0*
20,1,$1+$1,$8,$9,$2,$3,0*%
G04 Aperture macros list end*
%TA.AperFunction,ComponentPad*%
%ADD10R,1.371600X1.371600*%
%TD*%
%TA.AperFunction,ComponentPad*%
%ADD11C,1.371600*%
%TD*%
%TA.AperFunction,ComponentPad*%
%ADD12R,3.800000X3.800000*%
%TD*%
%TA.AperFunction,ComponentPad*%
%ADD13C,4.000000*%
%TD*%
%TA.AperFunction,ComponentPad*%
%ADD14RoundRect,0.249200X-0.600800X-0.450800X0.600800X-0.450800X0.600800X0.450800X-0.600800X0.450800X0*%
%TD*%
%TA.AperFunction,ComponentPad*%
%ADD15O,1.700000X1.400000*%
%TD*%
%TA.AperFunction,ViaPad*%
%ADD16C,0.800000*%
%TD*%
%TA.AperFunction,Conductor*%
%ADD17C,0.500000*%
%TD*%
G04 APERTURE END LIST*
D10*
%TO.P,U1,1,1OUT*%
%TO.N,OUT*%
X192532000Y-86360000D03*
D11*
%TO.P,U1,2,1IN-*%
%TO.N,IN-*%
X192532000Y-88900000D03*
%TO.P,U1,3,1IN+*%
%TO.N,GND*%
X192532000Y-91440000D03*
%TO.P,U1,4,VCC-*%
X192532000Y-93980000D03*
%TO.P,U1,5,2IN+*%
%TO.N,unconnected-(U1-Pad5)*%
X200152000Y-93980000D03*
%TO.P,U1,6,2IN-*%
%TO.N,unconnected-(U1-Pad6)*%
X200152000Y-91440000D03*
%TO.P,U1,7,2OUT*%
%TO.N,unconnected-(U1-Pad7)*%
X200152000Y-88900000D03*
%TO.P,U1,8,VCC+*%
%TO.N,VCC*%
X200152000Y-86360000D03*
%TD*%
D12*
%TO.P,J2,1,Pin_1*%
%TO.N,OUT*%
X186690000Y-87924000D03*
D13*
%TO.P,J2,2,Pin_2*%
%TO.N,GND*%
X186690000Y-92924000D03*
%TD*%
D14*
%TO.P,D1,1,K*%
%TO.N,VCC*%
X193802000Y-102870000D03*
D15*
%TO.P,D1,2,A*%
%TO.N,IN-*%
X198882000Y-102870000D03*
%TD*%
D12*
%TO.P,J1,1,Pin_1*%
%TO.N,GND*%
X186690000Y-104568000D03*
D13*
%TO.P,J1,2,Pin_2*%
%TO.N,VCC*%
X186690000Y-99568000D03*
%TD*%
D16*
%TO.N,VCC*%
X191262000Y-97028000D03*
%TD*%
D17*
%TO.N,IN-*%
X192532000Y-88900000D02*
X198882000Y-95250000D01*
X198882000Y-95250000D02*
X198882000Y-102870000D01*
%TO.N,OUT*%
X190968000Y-87924000D02*
X192532000Y-86360000D01*
X186690000Y-87924000D02*
X190968000Y-87924000D01*
%TD*%
%TA.AperFunction,Conductor*%
%TO.N,VCC*%
G36*
X201363621Y-83586502D02*
G01*
X201410114Y-83640158D01*
X201421500Y-83692500D01*
X201421500Y-85694573D01*
X201401498Y-85762694D01*
X201347842Y-85809187D01*
X201277568Y-85819291D01*
X201212988Y-85789797D01*
X201182495Y-85750302D01*
X201176801Y-85738757D01*
X201170786Y-85728941D01*
X201169434Y-85727130D01*
X201158176Y-85718681D01*
X201145757Y-85725453D01*
X200524022Y-86347188D01*
X200516408Y-86361132D01*
X200516539Y-86362965D01*
X200520790Y-86369580D01*
X201145274Y-86994064D01*
X201157654Y-87000824D01*
X201164235Y-86995898D01*
X201185566Y-86957808D01*
X201236303Y-86908146D01*
X201305834Y-86893799D01*
X201372085Y-86919320D01*
X201414020Y-86976608D01*
X201421500Y-87019374D01*
X201421500Y-88233445D01*
X201401498Y-88301566D01*
X201347842Y-88348059D01*
X201277568Y-88358163D01*
X201212988Y-88328669D01*
X201182495Y-88289175D01*
X201174670Y-88273307D01*
X201043340Y-88097434D01*
X200882158Y-87948439D01*
X200696523Y-87831313D01*
X200492653Y-87749976D01*
X200486994Y-87748850D01*
X200486922Y-87748829D01*
X200427287Y-87710304D01*
X200397947Y-87645654D01*
X200408218Y-87575404D01*
X200454838Y-87521859D01*
X200482205Y-87508705D01*
X200634174Y-87457118D01*
X200644681Y-87452440D01*
X200783069Y-87374938D01*
X200792934Y-87364860D01*
X200789978Y-87357188D01*
X200164812Y-86732022D01*
X200150868Y-86724408D01*
X200149035Y-86724539D01*
X200142420Y-86728790D01*
X199519400Y-87351810D01*
X199513204Y-87363156D01*
X199523086Y-87375645D01*
X199575124Y-87410416D01*
X199585234Y-87415906D01*
X199776208Y-87497955D01*
X199787153Y-87501511D01*
X199809131Y-87506484D01*
X199871158Y-87541027D01*
X199904663Y-87603620D01*
X199899009Y-87674391D01*
X199855990Y-87730870D01*
X199824935Y-87747589D01*
X199690108Y-87797330D01*
X199635638Y-87817425D01*
X199630677Y-87820377D01*
X199630676Y-87820377D01*
X199451969Y-87926696D01*
X199451966Y-87926698D01*
X199447001Y-87929652D01*
X199281974Y-88074377D01*
X199146085Y-88246751D01*
X199143394Y-88251867D01*
X199143392Y-88251869D01*
X199132113Y-88273307D01*
X199043884Y-88441003D01*
X198978794Y-88650627D01*
X198952995Y-88868603D01*
X198967351Y-89087630D01*
X199021381Y-89300373D01*
X199113275Y-89499708D01*
X199116606Y-89504421D01*
X199116607Y-89504423D01*
X199169566Y-89579357D01*
X199239957Y-89678958D01*
X199397183Y-89832121D01*
X199401979Y-89835326D01*
X199401982Y-89835328D01*
X199475991Y-89884779D01*
X199579688Y-89954067D01*
X199584991Y-89956345D01*
X199584994Y-89956347D01*
X199676640Y-89995721D01*
X199781360Y-90040712D01*
X199808274Y-90046802D01*
X199870300Y-90081346D01*
X199903804Y-90143940D01*
X199898148Y-90214711D01*
X199855129Y-90271190D01*
X199824078Y-90287906D01*
X199635638Y-90357425D01*
X199630677Y-90360377D01*
X199630676Y-90360377D01*
X199451969Y-90466696D01*
X199451966Y-90466698D01*
X199447001Y-90469652D01*
X199281974Y-90614377D01*
X199146085Y-90786751D01*
X199143394Y-90791867D01*
X199143392Y-90791869D01*
X199132113Y-90813307D01*
X199043884Y-90981003D01*
X198978794Y-91190627D01*
X198952995Y-91408603D01*
X198967351Y-91627630D01*
X199021381Y-91840373D01*
X199113275Y-92039708D01*
X199116606Y-92044421D01*
X199116607Y-92044423D01*
X199169566Y-92119357D01*
X199239957Y-92218958D01*
X199397183Y-92372121D01*
X199401979Y-92375326D01*
X199401982Y-92375328D01*
X199475991Y-92424779D01*
X199579688Y-92494067D01*
X199584991Y-92496345D01*
X199584994Y-92496347D01*
X199676640Y-92535721D01*
X199781360Y-92580712D01*
X199808274Y-92586802D01*
X199870300Y-92621346D01*
X199903804Y-92683940D01*
X199898148Y-92754711D01*
X199855129Y-92811190D01*
X199824078Y-92827906D01*
X199635638Y-92897425D01*
X199630677Y-92900377D01*
X199630676Y-92900377D01*
X199451969Y-93006696D01*
X199451966Y-93006698D01*
X199447001Y-93009652D01*
X199281974Y-93154377D01*
X199146085Y-93326751D01*
X199143394Y-93331867D01*
X199143392Y-93331869D01*
X199132113Y-93353307D01*
X199043884Y-93521003D01*
X198978794Y-93730627D01*
X198952995Y-93948603D01*
X198953055Y-93949513D01*
X198931760Y-94015584D01*
X198876905Y-94060656D01*
X198806391Y-94068916D01*
X198738487Y-94033806D01*
X193766101Y-89061420D01*
X193732075Y-88999108D01*
X193729740Y-88962996D01*
X193729772Y-88962773D01*
X193731416Y-88900000D01*
X193711332Y-88681424D01*
X193701090Y-88645110D01*
X193653319Y-88475727D01*
X193653318Y-88475725D01*
X193651751Y-88470168D01*
X193637369Y-88441003D01*
X193557225Y-88278488D01*
X193554670Y-88273307D01*
X193423340Y-88097434D01*
X193262158Y-87948439D01*
X193076523Y-87831313D01*
X192991345Y-87797330D01*
X192935486Y-87753509D01*
X192912186Y-87686445D01*
X192928842Y-87617429D01*
X192980167Y-87568375D01*
X193038036Y-87554300D01*
X193265934Y-87554300D01*
X193328116Y-87547545D01*
X193464505Y-87496415D01*
X193581061Y-87409061D01*
X193668415Y-87292505D01*
X193719545Y-87156116D01*
X193726300Y-87093934D01*
X193726300Y-86334382D01*
X198953875Y-86334382D01*
X198967469Y-86541783D01*
X198969270Y-86553153D01*
X199020432Y-86754606D01*
X199024273Y-86765453D01*
X199111293Y-86954215D01*
X199117042Y-86964172D01*
X199136225Y-86991315D01*
X199146814Y-86999703D01*
X199160115Y-86992675D01*
X199779978Y-86372812D01*
X199787592Y-86358868D01*
X199787461Y-86357035D01*
X199783210Y-86350420D01*
X199157011Y-85724221D01*
X199144631Y-85717461D01*
X199138665Y-85721927D01*
X199047037Y-85896085D01*
X199042636Y-85906709D01*
X198980998Y-86105215D01*
X198978606Y-86116469D01*
X198954176Y-86322881D01*
X198953875Y-86334382D01*
X193726300Y-86334382D01*
X193726300Y-85626066D01*
X193719545Y-85563884D01*
X193668415Y-85427495D01*
X193614889Y-85356075D01*
X199512187Y-85356075D01*
X199515673Y-85364463D01*
X200139188Y-85987978D01*
X200153132Y-85995592D01*
X200154965Y-85995461D01*
X200161580Y-85991210D01*
X200784489Y-85368301D01*
X200791249Y-85355921D01*
X200785219Y-85347866D01*
X200701180Y-85294841D01*
X200690932Y-85289620D01*
X200497879Y-85212600D01*
X200486843Y-85209331D01*
X200282987Y-85168781D01*
X200271542Y-85167578D01*
X200063716Y-85164858D01*
X200052236Y-85165761D01*
X199847395Y-85200959D01*
X199836275Y-85203939D01*
X199641270Y-85275880D01*
X199630892Y-85280830D01*
X199521785Y-85345742D01*
X199512187Y-85356075D01*
X193614889Y-85356075D01*
X193581061Y-85310939D01*
X193464505Y-85223585D01*
X193328116Y-85172455D01*
X193265934Y-85165700D01*
X191798066Y-85165700D01*
X191735884Y-85172455D01*
X191599495Y-85223585D01*
X191482939Y-85310939D01*
X191395585Y-85427495D01*
X191344455Y-85563884D01*
X191337700Y-85626066D01*
X191337700Y-86429429D01*
X191317698Y-86497550D01*
X191300795Y-86518524D01*
X190690724Y-87128595D01*
X190628412Y-87162621D01*
X190601629Y-87165500D01*
X189224500Y-87165500D01*
X189156379Y-87145498D01*
X189109886Y-87091842D01*
X189098500Y-87039500D01*
X189098500Y-85975866D01*
X189091745Y-85913684D01*
X189040615Y-85777295D01*
X188953261Y-85660739D01*
X188836705Y-85573385D01*
X188700316Y-85522255D01*
X188638134Y-85515500D01*
X184741866Y-85515500D01*
X184679684Y-85522255D01*
X184543295Y-85573385D01*
X184426739Y-85660739D01*
X184339385Y-85777295D01*
X184288255Y-85913684D01*
X184281500Y-85975866D01*
X184281500Y-89872134D01*
X184288255Y-89934316D01*
X184339385Y-90070705D01*
X184426739Y-90187261D01*
X184543295Y-90274615D01*
X184679684Y-90325745D01*
X184741866Y-90332500D01*
X185760594Y-90332500D01*
X185828715Y-90352502D01*
X185875208Y-90406158D01*
X185885312Y-90476432D01*
X185855818Y-90541012D01*
X185806978Y-90575652D01*
X185623495Y-90648298D01*
X185623490Y-90648300D01*
X185619821Y-90649753D01*
X185616353Y-90651659D01*
X185616352Y-90651660D01*
X185378879Y-90782213D01*
X185343221Y-90801816D01*
X185087860Y-90987346D01*
X184857767Y-91203418D01*
X184656568Y-91446625D01*
X184487438Y-91713131D01*
X184485754Y-91716710D01*
X184485750Y-91716717D01*
X184354733Y-91995144D01*
X184353044Y-91998734D01*
X184255505Y-92298928D01*
X184196359Y-92608980D01*
X184176540Y-92924000D01*
X184196359Y-93239020D01*
X184255505Y-93549072D01*
X184353044Y-93849266D01*
X184354731Y-93852852D01*
X184354733Y-93852856D01*
X184485750Y-94131283D01*
X184485754Y-94131290D01*
X184487438Y-94134869D01*
X184656568Y-94401375D01*
X184857767Y-94644582D01*
X185087860Y-94860654D01*
X185343221Y-95046184D01*
X185346690Y-95048091D01*
X185346693Y-95048093D01*
X185616352Y-95196340D01*
X185619821Y-95198247D01*
X185623490Y-95199700D01*
X185623495Y-95199702D01*
X185909628Y-95312990D01*
X185913298Y-95314443D01*
X186219025Y-95392940D01*
X186532179Y-95432500D01*
X186847821Y-95432500D01*
X187160975Y-95392940D01*
X187466702Y-95314443D01*
X187470372Y-95312990D01*
X187756505Y-95199702D01*
X187756510Y-95199700D01*
X187760179Y-95198247D01*
X187763648Y-95196340D01*
X188033307Y-95048093D01*
X188033310Y-95048091D01*
X188036779Y-95046184D01*
X188292140Y-94860654D01*
X188522233Y-94644582D01*
X188723432Y-94401375D01*
X188892562Y-94134869D01*
X188894246Y-94131290D01*
X188894250Y-94131283D01*
X189025267Y-93852856D01*
X189025269Y-93852852D01*
X189026956Y-93849266D01*
X189124495Y-93549072D01*
X189183641Y-93239020D01*
X189203460Y-92924000D01*
X189183641Y-92608980D01*
X189124495Y-92298928D01*
X189026956Y-91998734D01*
X189025267Y-91995144D01*
X188894250Y-91716717D01*
X188894246Y-91716710D01*
X188892562Y-91713131D01*
X188723432Y-91446625D01*
X188522233Y-91203418D01*
X188292140Y-90987346D01*
X188036779Y-90801816D01*
X188001122Y-90782213D01*
X187763648Y-90651660D01*
X187763647Y-90651659D01*
X187760179Y-90649753D01*
X187756510Y-90648300D01*
X187756505Y-90648298D01*
X187573022Y-90575652D01*
X187517048Y-90531977D01*
X187493572Y-90464974D01*
X187510048Y-90395916D01*
X187561244Y-90346727D01*
X187619406Y-90332500D01*
X188638134Y-90332500D01*
X188700316Y-90325745D01*
X188836705Y-90274615D01*
X188953261Y-90187261D01*
X189040615Y-90070705D01*
X189091745Y-89934316D01*
X189098500Y-89872134D01*
X189098500Y-88808500D01*
X189118502Y-88740379D01*
X189172158Y-88693886D01*
X189224500Y-88682500D01*
X190900930Y-88682500D01*
X190919880Y-88683933D01*
X190934115Y-88686099D01*
X190934119Y-88686099D01*
X190941349Y-88687199D01*
X190948641Y-88686606D01*
X190948644Y-88686606D01*
X190994018Y-88682915D01*
X191004233Y-88682500D01*
X191012293Y-88682500D01*
X191025583Y-88680951D01*
X191040507Y-88679211D01*
X191044882Y-88678778D01*
X191110339Y-88673454D01*
X191110342Y-88673453D01*
X191117637Y-88672860D01*
X191124601Y-88670604D01*
X191130560Y-88669413D01*
X191136416Y-88668029D01*
X191143681Y-88667182D01*
X191150552Y-88664688D01*
X191150560Y-88664686D01*
X191174260Y-88656083D01*
X191245117Y-88651642D01*
X191307127Y-88686215D01*
X191340602Y-88748825D01*
X191342377Y-88789331D01*
X191333674Y-88862866D01*
X191332995Y-88868603D01*
X191347351Y-89087630D01*
X191401381Y-89300373D01*
X191493275Y-89499708D01*
X191496606Y-89504421D01*
X191496607Y-89504423D01*
X191549566Y-89579357D01*
X191619957Y-89678958D01*
X191777183Y-89832121D01*
X191781979Y-89835326D01*
X191781982Y-89835328D01*
X191855991Y-89884779D01*
X191959688Y-89954067D01*
X191964991Y-89956345D01*
X191964994Y-89956347D01*
X192056640Y-89995721D01*
X192161360Y-90040712D01*
X192188274Y-90046802D01*
X192250300Y-90081346D01*
X192283804Y-90143940D01*
X192278148Y-90214711D01*
X192235129Y-90271190D01*
X192204078Y-90287906D01*
X192015638Y-90357425D01*
X192010677Y-90360377D01*
X192010676Y-90360377D01*
X191831969Y-90466696D01*
X191831966Y-90466698D01*
X191827001Y-90469652D01*
X191661974Y-90614377D01*
X191526085Y-90786751D01*
X191523394Y-90791867D01*
X191523392Y-90791869D01*
X191512113Y-90813307D01*
X191423884Y-90981003D01*
X191358794Y-91190627D01*
X191332995Y-91408603D01*
X191347351Y-91627630D01*
X191401381Y-91840373D01*
X191493275Y-92039708D01*
X191496606Y-92044421D01*
X191496607Y-92044423D01*
X191549566Y-92119357D01*
X191619957Y-92218958D01*
X191777183Y-92372121D01*
X191781979Y-92375326D01*
X191781982Y-92375328D01*
X191855991Y-92424779D01*
X191959688Y-92494067D01*
X191964991Y-92496345D01*
X191964994Y-92496347D01*
X192056640Y-92535721D01*
X192161360Y-92580712D01*
X192188274Y-92586802D01*
X192250300Y-92621346D01*
X192283804Y-92683940D01*
X192278148Y-92754711D01*
X192235129Y-92811190D01*
X192204078Y-92827906D01*
X192015638Y-92897425D01*
X192010677Y-92900377D01*
X192010676Y-92900377D01*
X191831969Y-93006696D01*
X191831966Y-93006698D01*
X191827001Y-93009652D01*
X191661974Y-93154377D01*
X191526085Y-93326751D01*
X191523394Y-93331867D01*
X191523392Y-93331869D01*
X191512113Y-93353307D01*
X191423884Y-93521003D01*
X191358794Y-93730627D01*
X191332995Y-93948603D01*
X191347351Y-94167630D01*
X191401381Y-94380373D01*
X191493275Y-94579708D01*
X191496606Y-94584421D01*
X191496607Y-94584423D01*
X191549566Y-94659357D01*
X191619957Y-94758958D01*
X191777183Y-94912121D01*
X191781979Y-94915326D01*
X191781982Y-94915328D01*
X191855991Y-94964779D01*
X191959688Y-95034067D01*
X191964991Y-95036345D01*
X191964994Y-95036347D01*
X192053377Y-95074319D01*
X192161360Y-95120712D01*
X192375445Y-95169155D01*
X192381216Y-95169382D01*
X192381218Y-95169382D01*
X192454634Y-95172266D01*
X192594773Y-95177772D01*
X192686442Y-95164481D01*
X192806284Y-95147105D01*
X192806289Y-95147104D01*
X192811998Y-95146276D01*
X192817462Y-95144421D01*
X192817467Y-95144420D01*
X193014378Y-95077577D01*
X193019846Y-95075721D01*
X193211357Y-94968470D01*
X193380115Y-94828115D01*
X193520470Y-94659357D01*
X193627721Y-94467846D01*
X193659315Y-94374773D01*
X193696420Y-94265467D01*
X193696421Y-94265462D01*
X193698276Y-94259998D01*
X193699104Y-94254289D01*
X193699105Y-94254284D01*
X193729239Y-94046447D01*
X193729772Y-94042773D01*
X193731416Y-93980000D01*
X193711332Y-93761424D01*
X193651751Y-93550168D01*
X193637369Y-93521003D01*
X193557225Y-93358488D01*
X193554670Y-93353307D01*
X193423340Y-93177434D01*
X193262158Y-93028439D01*
X193076523Y-92911313D01*
X192872653Y-92829976D01*
X192867586Y-92828968D01*
X192808118Y-92790551D01*
X192778777Y-92725901D01*
X192789048Y-92655651D01*
X192835667Y-92602105D01*
X192863036Y-92588951D01*
X193014378Y-92537577D01*
X193019846Y-92535721D01*
X193211357Y-92428470D01*
X193380115Y-92288115D01*
X193520470Y-92119357D01*
X193627721Y-91927846D01*
X193698276Y-91719998D01*
X193699104Y-91714289D01*
X193699105Y-91714284D01*
X193729239Y-91506447D01*
X193729772Y-91502773D01*
X193730575Y-91472104D01*
X193752353Y-91404531D01*
X193807208Y-91359459D01*
X193877722Y-91351198D01*
X193945627Y-91386308D01*
X198086595Y-95527276D01*
X198120621Y-95589588D01*
X198123500Y-95616371D01*
X198123500Y-101754388D01*
X198103498Y-101822509D01*
X198071026Y-101856711D01*
X197939149Y-101951474D01*
X197789023Y-102106392D01*
X197668703Y-102285447D01*
X197666444Y-102290593D01*
X197666443Y-102290595D01*
X197633502Y-102365638D01*
X197581992Y-102482980D01*
X197531632Y-102692745D01*
X197519214Y-102908113D01*
X197545130Y-103122277D01*
X197546777Y-103127631D01*
X197546778Y-103127635D01*
X197547464Y-103129865D01*
X197608563Y-103328466D01*
X197611134Y-103333447D01*
X197681532Y-103469841D01*
X197707505Y-103520164D01*
X197710920Y-103524614D01*
X197835415Y-103686860D01*
X197835419Y-103686864D01*
X197838831Y-103691311D01*
X197842980Y-103695086D01*
X197994242Y-103832724D01*
X197994245Y-103832726D01*
X197998389Y-103836497D01*
X198003141Y-103839478D01*
X198176379Y-103948151D01*
X198176383Y-103948153D01*
X198181135Y-103951134D01*
X198381293Y-104031597D01*
X198592537Y-104075344D01*
X198597148Y-104075610D01*
X198597149Y-104075610D01*
X198645452Y-104078395D01*
X198645456Y-104078395D01*
X198647275Y-104078500D01*
X199086735Y-104078500D01*
X199089522Y-104078251D01*
X199089528Y-104078251D01*
X199158053Y-104072135D01*
X199246872Y-104064208D01*
X199373740Y-104029501D01*
X199449536Y-104008766D01*
X199449540Y-104008765D01*
X199454952Y-104007284D01*
X199649663Y-103914411D01*
X199824851Y-103788526D01*
X199974977Y-103633608D01*
X200095297Y-103454553D01*
X200182008Y-103257020D01*
X200232368Y-103047255D01*
X200244786Y-102831887D01*
X200218870Y-102617723D01*
X200216964Y-102611525D01*
X200157085Y-102416891D01*
X200155437Y-102411534D01*
X200083131Y-102271443D01*
X200059066Y-102224817D01*
X200059065Y-102224816D01*
X200056495Y-102219836D01*
X199994849Y-102139498D01*
X199928585Y-102053140D01*
X199928581Y-102053136D01*
X199925169Y-102048689D01*
X199817797Y-101950988D01*
X199769758Y-101907276D01*
X199769755Y-101907274D01*
X199765611Y-101903503D01*
X199699542Y-101862058D01*
X199652466Y-101808916D01*
X199640500Y-101755322D01*
X199640500Y-95317069D01*
X199641933Y-95298118D01*
X199644099Y-95283883D01*
X199644099Y-95283881D01*
X199645199Y-95276651D01*
X199643630Y-95257364D01*
X199658043Y-95187847D01*
X199707752Y-95137157D01*
X199776975Y-95121388D01*
X199797020Y-95124256D01*
X199995445Y-95169155D01*
X200001216Y-95169382D01*
X200001218Y-95169382D01*
X200074634Y-95172266D01*
X200214773Y-95177772D01*
X200306442Y-95164481D01*
X200426284Y-95147105D01*
X200426289Y-95147104D01*
X200431998Y-95146276D01*
X200437462Y-95144421D01*
X200437467Y-95144420D01*
X200634378Y-95077577D01*
X200639846Y-95075721D01*
X200831357Y-94968470D01*
X201000115Y-94828115D01*
X201140470Y-94659357D01*
X201182435Y-94584423D01*
X201185565Y-94578834D01*
X201236302Y-94529172D01*
X201305834Y-94514825D01*
X201372085Y-94540346D01*
X201414020Y-94597634D01*
X201421500Y-94640400D01*
X201421500Y-107823500D01*
X201401498Y-107891621D01*
X201347842Y-107938114D01*
X201295500Y-107949500D01*
X182244500Y-107949500D01*
X182176379Y-107929498D01*
X182129886Y-107875842D01*
X182118500Y-107823500D01*
X182118500Y-106516134D01*
X184281500Y-106516134D01*
X184288255Y-106578316D01*
X184339385Y-106714705D01*
X184426739Y-106831261D01*
X184543295Y-106918615D01*
X184679684Y-106969745D01*
X184741866Y-106976500D01*
X188638134Y-106976500D01*
X188700316Y-106969745D01*
X188836705Y-106918615D01*
X188953261Y-106831261D01*
X189040615Y-106714705D01*
X189091745Y-106578316D01*
X189098500Y-106516134D01*
X189098500Y-103367846D01*
X192444000Y-103367846D01*
X192444337Y-103374362D01*
X192454244Y-103469841D01*
X192457137Y-103483238D01*
X192508517Y-103637243D01*
X192514691Y-103650422D01*
X192599893Y-103788107D01*
X192608929Y-103799508D01*
X192723528Y-103913907D01*
X192734939Y-103922919D01*
X192872785Y-104007888D01*
X192885963Y-104014032D01*
X193040077Y-104065150D01*
X193053443Y-104068016D01*
X193147690Y-104077672D01*
X193154105Y-104078000D01*
X193529885Y-104078000D01*
X193545124Y-104073525D01*
X193546329Y-104072135D01*
X193548000Y-104064452D01*
X193548000Y-104059885D01*
X194056000Y-104059885D01*
X194060475Y-104075124D01*
X194061865Y-104076329D01*
X194069548Y-104078000D01*
X194449846Y-104078000D01*
X194456362Y-104077663D01*
X194551841Y-104067756D01*
X194565238Y-104064863D01*
X194719243Y-104013483D01*
X194732422Y-104007309D01*
X194870107Y-103922107D01*
X194881508Y-103913071D01*
X194995907Y-103798472D01*
X195004919Y-103787061D01*
X195089888Y-103649215D01*
X195096032Y-103636037D01*
X195147150Y-103481923D01*
X195150016Y-103468557D01*
X195159672Y-103374310D01*
X195160000Y-103367895D01*
X195160000Y-103142115D01*
X195155525Y-103126876D01*
X195154135Y-103125671D01*
X195146452Y-103124000D01*
X194074115Y-103124000D01*
X194058876Y-103128475D01*
X194057671Y-103129865D01*
X194056000Y-103137548D01*
X194056000Y-104059885D01*
X193548000Y-104059885D01*
X193548000Y-103142115D01*
X193543525Y-103126876D01*
X193542135Y-103125671D01*
X193534452Y-103124000D01*
X192462115Y-103124000D01*
X192446876Y-103128475D01*
X192445671Y-103129865D01*
X192444000Y-103137548D01*
X192444000Y-103367846D01*
X189098500Y-103367846D01*
X189098500Y-102619866D01*
X189096112Y-102597885D01*
X192444000Y-102597885D01*
X192448475Y-102613124D01*
X192449865Y-102614329D01*
X192457548Y-102616000D01*
X193529885Y-102616000D01*
X193545124Y-102611525D01*
X193546329Y-102610135D01*
X193548000Y-102602452D01*
X193548000Y-102597885D01*
X194056000Y-102597885D01*
X194060475Y-102613124D01*
X194061865Y-102614329D01*
X194069548Y-102616000D01*
X195141885Y-102616000D01*
X195157124Y-102611525D01*
X195158329Y-102610135D01*
X195160000Y-102602452D01*
X195160000Y-102372154D01*
X195159663Y-102365638D01*
X195149756Y-102270159D01*
X195146863Y-102256762D01*
X195095483Y-102102757D01*
X195089309Y-102089578D01*
X195004107Y-101951893D01*
X194995071Y-101940492D01*
X194880472Y-101826093D01*
X194869061Y-101817081D01*
X194731215Y-101732112D01*
X194718037Y-101725968D01*
X194563923Y-101674850D01*
X194550557Y-101671984D01*
X194456310Y-101662328D01*
X194449895Y-101662000D01*
X194074115Y-101662000D01*
X194058876Y-101666475D01*
X194057671Y-101667865D01*
X194056000Y-101675548D01*
X194056000Y-102597885D01*
X193548000Y-102597885D01*
X193548000Y-101680115D01*
X193543525Y-101664876D01*
X193542135Y-101663671D01*
X193534452Y-101662000D01*
X193154154Y-101662000D01*
X193147638Y-101662337D01*
X193052159Y-101672244D01*
X193038762Y-101675137D01*
X192884757Y-101726517D01*
X192871578Y-101732691D01*
X192733893Y-101817893D01*
X192722492Y-101826929D01*
X192608093Y-101941528D01*
X192599081Y-101952939D01*
X192514112Y-102090785D01*
X192507968Y-102103963D01*
X192456850Y-102258077D01*
X192453984Y-102271443D01*
X192444328Y-102365690D01*
X192444000Y-102372105D01*
X192444000Y-102597885D01*
X189096112Y-102597885D01*
X189091745Y-102557684D01*
X189040615Y-102421295D01*
X188953261Y-102304739D01*
X188836705Y-102217385D01*
X188700316Y-102166255D01*
X188638134Y-102159500D01*
X187618046Y-102159500D01*
X187549925Y-102139498D01*
X187503432Y-102085842D01*
X187493328Y-102015568D01*
X187522822Y-101950988D01*
X187571662Y-101916348D01*
X187756293Y-101843247D01*
X187763428Y-101839890D01*
X188033039Y-101691670D01*
X188039719Y-101687430D01*
X188262823Y-101525336D01*
X188271246Y-101514413D01*
X188264342Y-101501552D01*
X186702812Y-99940022D01*
X186688868Y-99932408D01*
X186687035Y-99932539D01*
X186680420Y-99936790D01*
X185115334Y-101501876D01*
X185108721Y-101513987D01*
X185117548Y-101525605D01*
X185340281Y-101687430D01*
X185346961Y-101691670D01*
X185616572Y-101839890D01*
X185623707Y-101843247D01*
X185808338Y-101916348D01*
X185864312Y-101960023D01*
X185887788Y-102027026D01*
X185871312Y-102096084D01*
X185820117Y-102145273D01*
X185761954Y-102159500D01*
X184741866Y-102159500D01*
X184679684Y-102166255D01*
X184543295Y-102217385D01*
X184426739Y-102304739D01*
X184339385Y-102421295D01*
X184288255Y-102557684D01*
X184281500Y-102619866D01*
X184281500Y-106516134D01*
X182118500Y-106516134D01*
X182118500Y-99571958D01*
X184177290Y-99571958D01*
X184196607Y-99878994D01*
X184197600Y-99886855D01*
X184255246Y-100189046D01*
X184257217Y-100196723D01*
X184352284Y-100489309D01*
X184355199Y-100496672D01*
X184486189Y-100775041D01*
X184490001Y-100781974D01*
X184654851Y-101041736D01*
X184659495Y-101048129D01*
X184734497Y-101138790D01*
X184747014Y-101147245D01*
X184757752Y-101141038D01*
X186317978Y-99580812D01*
X186324356Y-99569132D01*
X187054408Y-99569132D01*
X187054539Y-99570965D01*
X187058790Y-99577580D01*
X188621145Y-101139935D01*
X188634407Y-101147177D01*
X188644512Y-101139988D01*
X188720505Y-101048129D01*
X188725149Y-101041736D01*
X188889999Y-100781974D01*
X188893811Y-100775041D01*
X189024801Y-100496672D01*
X189027716Y-100489309D01*
X189122783Y-100196723D01*
X189124754Y-100189046D01*
X189182400Y-99886855D01*
X189183393Y-99878994D01*
X189202710Y-99571958D01*
X189202710Y-99564042D01*
X189183393Y-99257006D01*
X189182400Y-99249145D01*
X189124754Y-98946954D01*
X189122783Y-98939277D01*
X189027716Y-98646691D01*
X189024801Y-98639328D01*
X188893811Y-98360959D01*
X188889999Y-98354026D01*
X188725149Y-98094264D01*
X188720505Y-98087871D01*
X188645503Y-97997210D01*
X188632986Y-97988755D01*
X188622248Y-97994962D01*
X187062022Y-99555188D01*
X187054408Y-99569132D01*
X186324356Y-99569132D01*
X186325592Y-99566868D01*
X186325461Y-99565035D01*
X186321210Y-99558420D01*
X184758855Y-97996065D01*
X184745593Y-97988823D01*
X184735488Y-97996012D01*
X184659495Y-98087871D01*
X184654851Y-98094264D01*
X184490001Y-98354026D01*
X184486189Y-98360959D01*
X184355199Y-98639328D01*
X184352284Y-98646691D01*
X184257217Y-98939277D01*
X184255246Y-98946954D01*
X184197600Y-99249145D01*
X184196607Y-99257006D01*
X184177290Y-99564042D01*
X184177290Y-99571958D01*
X182118500Y-99571958D01*
X182118500Y-97621587D01*
X185108754Y-97621587D01*
X185115658Y-97634448D01*
X186677188Y-99195978D01*
X186691132Y-99203592D01*
X186692965Y-99203461D01*
X186699580Y-99199210D01*
X188264666Y-97634124D01*
X188271279Y-97622013D01*
X188262452Y-97610395D01*
X188039719Y-97448570D01*
X188033039Y-97444330D01*
X187763428Y-97296110D01*
X187756293Y-97292753D01*
X187470230Y-97179492D01*
X187462704Y-97177047D01*
X187164721Y-97100538D01*
X187156950Y-97099055D01*
X186851722Y-97060497D01*
X186843831Y-97060000D01*
X186536169Y-97060000D01*
X186528278Y-97060497D01*
X186223050Y-97099055D01*
X186215279Y-97100538D01*
X185917296Y-97177047D01*
X185909770Y-97179492D01*
X185623707Y-97292753D01*
X185616572Y-97296110D01*
X185346961Y-97444330D01*
X185340281Y-97448570D01*
X185117177Y-97610664D01*
X185108754Y-97621587D01*
X182118500Y-97621587D01*
X182118500Y-83692500D01*
X182138502Y-83624379D01*
X182192158Y-83577886D01*
X182244500Y-83566500D01*
X201295500Y-83566500D01*
X201363621Y-83586502D01*
G37*
%TD.AperFunction*%
%TD*%
M02*
