%TF.GenerationSoftware,KiCad,Pcbnew,(6.0.6)*%
%TF.CreationDate,2022-07-17T10:27:07+05:30*%
%TF.ProjectId,transimpedanceAmplifier,7472616e-7369-46d7-9065-64616e636541,rev?*%
%TF.SameCoordinates,Original*%
%TF.FileFunction,Copper,L1,Top*%
%TF.FilePolarity,Positive*%
%FSLAX46Y46*%
G04 Gerber Fmt 4.6, Leading zero omitted, Abs format (unit mm)*
G04 Created by KiCad (PCBNEW (6.0.6)) date 2022-07-17 10:27:07*
%MOMM*%
%LPD*%
G01*
G04 APERTURE LIST*
G04 Aperture macros list*
%AMRoundRect*
0 Rectangle with rounded corners*
0 $1 Rounding radius*
0 $2 $3 $4 $5 $6 $7 $8 $9 X,Y pos of 4 corners*
0 Add a 4 corners polygon primitive as box body*
4,1,4,$2,$3,$4,$5,$6,$7,$8,$9,$2,$3,0*
0 Add four circle primitives for the rounded corners*
1,1,$1+$1,$2,$3*
1,1,$1+$1,$4,$5*
1,1,$1+$1,$6,$7*
1,1,$1+$1,$8,$9*
0 Add four rect primitives between the rounded corners*
20,1,$1+$1,$2,$3,$4,$5,0*
20,1,$1+$1,$4,$5,$6,$7,0*
20,1,$1+$1,$6,$7,$8,$9,0*
20,1,$1+$1,$8,$9,$2,$3,0*%
G04 Aperture macros list end*
%TA.AperFunction,SMDPad,CuDef*%
%ADD10RoundRect,0.100000X-0.130000X-0.100000X0.130000X-0.100000X0.130000X0.100000X-0.130000X0.100000X0*%
%TD*%
%TA.AperFunction,ComponentPad*%
%ADD11R,1.371600X1.371600*%
%TD*%
%TA.AperFunction,ComponentPad*%
%ADD12C,1.371600*%
%TD*%
%TA.AperFunction,ComponentPad*%
%ADD13R,3.800000X3.800000*%
%TD*%
%TA.AperFunction,ComponentPad*%
%ADD14C,4.000000*%
%TD*%
%TA.AperFunction,ComponentPad*%
%ADD15RoundRect,0.249200X-0.600800X-0.450800X0.600800X-0.450800X0.600800X0.450800X-0.600800X0.450800X0*%
%TD*%
%TA.AperFunction,ComponentPad*%
%ADD16O,1.700000X1.400000*%
%TD*%
%TA.AperFunction,ViaPad*%
%ADD17C,0.800000*%
%TD*%
%TA.AperFunction,Conductor*%
%ADD18C,0.500000*%
%TD*%
G04 APERTURE END LIST*
D10*
%TO.P,C1,1*%
%TO.N,IN-*%
X198816000Y-97282000D03*
%TO.P,C1,2*%
%TO.N,OUT*%
X199456000Y-97282000D03*
%TD*%
D11*
%TO.P,U1,1,1OUT*%
%TO.N,OUT*%
X192532000Y-86360000D03*
D12*
%TO.P,U1,2,1IN-*%
%TO.N,IN-*%
X192532000Y-88900000D03*
%TO.P,U1,3,1IN+*%
%TO.N,GND*%
X192532000Y-91440000D03*
%TO.P,U1,4,VCC-*%
X192532000Y-93980000D03*
%TO.P,U1,5,2IN+*%
%TO.N,unconnected-(U1-Pad5)*%
X200152000Y-93980000D03*
%TO.P,U1,6,2IN-*%
%TO.N,unconnected-(U1-Pad6)*%
X200152000Y-91440000D03*
%TO.P,U1,7,2OUT*%
%TO.N,unconnected-(U1-Pad7)*%
X200152000Y-88900000D03*
%TO.P,U1,8,VCC+*%
%TO.N,VCC*%
X200152000Y-86360000D03*
%TD*%
D10*
%TO.P,C2,1*%
%TO.N,VCC*%
X192974000Y-97282000D03*
%TO.P,C2,2*%
%TO.N,GND*%
X193614000Y-97282000D03*
%TD*%
D13*
%TO.P,J2,1,Pin_1*%
%TO.N,OUT*%
X186690000Y-87924000D03*
D14*
%TO.P,J2,2,Pin_2*%
%TO.N,GND*%
X186690000Y-92924000D03*
%TD*%
D10*
%TO.P,R1,1*%
%TO.N,IN-*%
X195768000Y-97282000D03*
%TO.P,R1,2*%
%TO.N,OUT*%
X196408000Y-97282000D03*
%TD*%
D15*
%TO.P,D1,1,K*%
%TO.N,VCC*%
X193802000Y-102870000D03*
D16*
%TO.P,D1,2,A*%
%TO.N,IN-*%
X198882000Y-102870000D03*
%TD*%
D13*
%TO.P,J1,1,Pin_1*%
%TO.N,GND*%
X186690000Y-104568000D03*
D14*
%TO.P,J1,2,Pin_2*%
%TO.N,VCC*%
X186690000Y-99568000D03*
%TD*%
D17*
%TO.N,VCC*%
X191262000Y-97028000D03*
%TD*%
D18*
%TO.N,IN-*%
X198882000Y-102870000D02*
X198776000Y-102764000D01*
X192532000Y-88900000D02*
X194818000Y-91186000D01*
X194818000Y-91186000D02*
X194818000Y-96266000D01*
X195728000Y-97176000D02*
X195728000Y-97282000D01*
X197866000Y-100076000D02*
X198776000Y-99166000D01*
X198776000Y-99166000D02*
X198776000Y-97282000D01*
X198882000Y-102870000D02*
X198882000Y-101092000D01*
X198882000Y-101092000D02*
X197866000Y-100076000D01*
X194818000Y-96266000D02*
X195728000Y-97176000D01*
%TO.N,OUT*%
X196448000Y-96668000D02*
X196448000Y-97282000D01*
X197358000Y-95758000D02*
X199390000Y-95758000D01*
X192532000Y-86360000D02*
X197358000Y-91186000D01*
X197358000Y-91186000D02*
X197358000Y-95758000D01*
X199496000Y-95864000D02*
X199496000Y-97282000D01*
X197358000Y-95758000D02*
X196448000Y-96668000D01*
X199390000Y-95758000D02*
X199496000Y-95864000D01*
%TO.N,VCC*%
X192720000Y-97028000D02*
X192934000Y-97242000D01*
X192934000Y-97242000D02*
X192934000Y-97282000D01*
X191262000Y-97028000D02*
X192720000Y-97028000D01*
%TD*%
%TA.AperFunction,Conductor*%
%TO.N,GND*%
G36*
X201363621Y-83586502D02*
G01*
X201410114Y-83640158D01*
X201421500Y-83692500D01*
X201421500Y-85693445D01*
X201401498Y-85761566D01*
X201347842Y-85808059D01*
X201277568Y-85818163D01*
X201212988Y-85788669D01*
X201182495Y-85749175D01*
X201174670Y-85733307D01*
X201052898Y-85570233D01*
X201046793Y-85562058D01*
X201046792Y-85562057D01*
X201043340Y-85557434D01*
X200946295Y-85467727D01*
X200886398Y-85412358D01*
X200886395Y-85412356D01*
X200882158Y-85408439D01*
X200696523Y-85291313D01*
X200492653Y-85209976D01*
X200486985Y-85208849D01*
X200486983Y-85208848D01*
X200283041Y-85168282D01*
X200283037Y-85168282D01*
X200277373Y-85167155D01*
X200271598Y-85167079D01*
X200271594Y-85167079D01*
X200160963Y-85165631D01*
X200057895Y-85164281D01*
X200052198Y-85165260D01*
X200052197Y-85165260D01*
X199847265Y-85200474D01*
X199841568Y-85201453D01*
X199635638Y-85277425D01*
X199630677Y-85280377D01*
X199630676Y-85280377D01*
X199451969Y-85386696D01*
X199451966Y-85386698D01*
X199447001Y-85389652D01*
X199281974Y-85534377D01*
X199146085Y-85706751D01*
X199143394Y-85711867D01*
X199143392Y-85711869D01*
X199108970Y-85777295D01*
X199043884Y-85901003D01*
X198978794Y-86110627D01*
X198952995Y-86328603D01*
X198967351Y-86547630D01*
X199021381Y-86760373D01*
X199113275Y-86959708D01*
X199116606Y-86964421D01*
X199116607Y-86964423D01*
X199210538Y-87097331D01*
X199239957Y-87138958D01*
X199397183Y-87292121D01*
X199401979Y-87295326D01*
X199401982Y-87295328D01*
X199408512Y-87299691D01*
X199579688Y-87414067D01*
X199584991Y-87416345D01*
X199584994Y-87416347D01*
X199676640Y-87455721D01*
X199781360Y-87500712D01*
X199808274Y-87506802D01*
X199870300Y-87541346D01*
X199903804Y-87603940D01*
X199898148Y-87674711D01*
X199855129Y-87731190D01*
X199824078Y-87747906D01*
X199635638Y-87817425D01*
X199630677Y-87820377D01*
X199630676Y-87820377D01*
X199451969Y-87926696D01*
X199451966Y-87926698D01*
X199447001Y-87929652D01*
X199281974Y-88074377D01*
X199146085Y-88246751D01*
X199143394Y-88251867D01*
X199143392Y-88251869D01*
X199132113Y-88273307D01*
X199043884Y-88441003D01*
X198978794Y-88650627D01*
X198952995Y-88868603D01*
X198967351Y-89087630D01*
X199021381Y-89300373D01*
X199113275Y-89499708D01*
X199116606Y-89504421D01*
X199116607Y-89504423D01*
X199169566Y-89579357D01*
X199239957Y-89678958D01*
X199397183Y-89832121D01*
X199401979Y-89835326D01*
X199401982Y-89835328D01*
X199475991Y-89884779D01*
X199579688Y-89954067D01*
X199584991Y-89956345D01*
X199584994Y-89956347D01*
X199676640Y-89995721D01*
X199781360Y-90040712D01*
X199808274Y-90046802D01*
X199870300Y-90081346D01*
X199903804Y-90143940D01*
X199898148Y-90214711D01*
X199855129Y-90271190D01*
X199824078Y-90287906D01*
X199635638Y-90357425D01*
X199630677Y-90360377D01*
X199630676Y-90360377D01*
X199451969Y-90466696D01*
X199451966Y-90466698D01*
X199447001Y-90469652D01*
X199281974Y-90614377D01*
X199146085Y-90786751D01*
X199143394Y-90791867D01*
X199143392Y-90791869D01*
X199051428Y-90966664D01*
X199043884Y-90981003D01*
X198978794Y-91190627D01*
X198952995Y-91408603D01*
X198967351Y-91627630D01*
X199021381Y-91840373D01*
X199113275Y-92039708D01*
X199116606Y-92044421D01*
X199116607Y-92044423D01*
X199169566Y-92119357D01*
X199239957Y-92218958D01*
X199397183Y-92372121D01*
X199401979Y-92375326D01*
X199401982Y-92375328D01*
X199521127Y-92454938D01*
X199579688Y-92494067D01*
X199584991Y-92496345D01*
X199584994Y-92496347D01*
X199774943Y-92577955D01*
X199781360Y-92580712D01*
X199808274Y-92586802D01*
X199870300Y-92621346D01*
X199903804Y-92683940D01*
X199898148Y-92754711D01*
X199855129Y-92811190D01*
X199824078Y-92827906D01*
X199635638Y-92897425D01*
X199630677Y-92900377D01*
X199630676Y-92900377D01*
X199451969Y-93006696D01*
X199451966Y-93006698D01*
X199447001Y-93009652D01*
X199281974Y-93154377D01*
X199146085Y-93326751D01*
X199143394Y-93331867D01*
X199143392Y-93331869D01*
X199123766Y-93369172D01*
X199043884Y-93521003D01*
X198978794Y-93730627D01*
X198952995Y-93948603D01*
X198967351Y-94167630D01*
X199021381Y-94380373D01*
X199113275Y-94579708D01*
X199116606Y-94584421D01*
X199116607Y-94584423D01*
X199169566Y-94659357D01*
X199239957Y-94758958D01*
X199244093Y-94762987D01*
X199244098Y-94762993D01*
X199264889Y-94783247D01*
X199299727Y-94845108D01*
X199295589Y-94915984D01*
X199253789Y-94973372D01*
X199187599Y-94999051D01*
X199176967Y-94999500D01*
X198242500Y-94999500D01*
X198174379Y-94979498D01*
X198127886Y-94925842D01*
X198116500Y-94873500D01*
X198116500Y-91253070D01*
X198117933Y-91234120D01*
X198120099Y-91219885D01*
X198120099Y-91219881D01*
X198121199Y-91212651D01*
X198119875Y-91196364D01*
X198116915Y-91159982D01*
X198116500Y-91149767D01*
X198116500Y-91141707D01*
X198116076Y-91138063D01*
X198113211Y-91113497D01*
X198112778Y-91109121D01*
X198107454Y-91043662D01*
X198107453Y-91043659D01*
X198106860Y-91036364D01*
X198104604Y-91029400D01*
X198103417Y-91023461D01*
X198102030Y-91017590D01*
X198101182Y-91010319D01*
X198098686Y-91003443D01*
X198098684Y-91003434D01*
X198076275Y-90941702D01*
X198074865Y-90937598D01*
X198052352Y-90868101D01*
X198048556Y-90861846D01*
X198046057Y-90856387D01*
X198043329Y-90850939D01*
X198040833Y-90844063D01*
X198000805Y-90783010D01*
X197998481Y-90779327D01*
X197963504Y-90721686D01*
X197963501Y-90721682D01*
X197960595Y-90716893D01*
X197956886Y-90712694D01*
X197956883Y-90712689D01*
X197953197Y-90708516D01*
X197953224Y-90708492D01*
X197950571Y-90705500D01*
X197947868Y-90702267D01*
X197943856Y-90696148D01*
X197887617Y-90642872D01*
X197885175Y-90640494D01*
X193763205Y-86518524D01*
X193729179Y-86456212D01*
X193726300Y-86429429D01*
X193726300Y-85626066D01*
X193719545Y-85563884D01*
X193668415Y-85427495D01*
X193581061Y-85310939D01*
X193464505Y-85223585D01*
X193328116Y-85172455D01*
X193265934Y-85165700D01*
X191798066Y-85165700D01*
X191735884Y-85172455D01*
X191599495Y-85223585D01*
X191482939Y-85310939D01*
X191395585Y-85427495D01*
X191344455Y-85563884D01*
X191337700Y-85626066D01*
X191337700Y-87093934D01*
X191344455Y-87156116D01*
X191395585Y-87292505D01*
X191482939Y-87409061D01*
X191599495Y-87496415D01*
X191735884Y-87547545D01*
X191798066Y-87554300D01*
X192023293Y-87554300D01*
X192091414Y-87574302D01*
X192137907Y-87627958D01*
X192148011Y-87698232D01*
X192118517Y-87762812D01*
X192066904Y-87798512D01*
X192015638Y-87817425D01*
X192010677Y-87820377D01*
X192010676Y-87820377D01*
X191831969Y-87926696D01*
X191831966Y-87926698D01*
X191827001Y-87929652D01*
X191661974Y-88074377D01*
X191526085Y-88246751D01*
X191523394Y-88251867D01*
X191523392Y-88251869D01*
X191512113Y-88273307D01*
X191423884Y-88441003D01*
X191358794Y-88650627D01*
X191332995Y-88868603D01*
X191347351Y-89087630D01*
X191401381Y-89300373D01*
X191493275Y-89499708D01*
X191496606Y-89504421D01*
X191496607Y-89504423D01*
X191549566Y-89579357D01*
X191619957Y-89678958D01*
X191777183Y-89832121D01*
X191781979Y-89835326D01*
X191781982Y-89835328D01*
X191855991Y-89884779D01*
X191959688Y-89954067D01*
X191964991Y-89956345D01*
X191964994Y-89956347D01*
X192056640Y-89995721D01*
X192161360Y-90040712D01*
X192189167Y-90047004D01*
X192251193Y-90081547D01*
X192284698Y-90144140D01*
X192279044Y-90214911D01*
X192236025Y-90271390D01*
X192204970Y-90288109D01*
X192021270Y-90355880D01*
X192010892Y-90360830D01*
X191901785Y-90425742D01*
X191892187Y-90436075D01*
X191895673Y-90444463D01*
X193525274Y-92074064D01*
X193537654Y-92080824D01*
X193544234Y-92075898D01*
X193624440Y-91932681D01*
X193629118Y-91922174D01*
X193695930Y-91725355D01*
X193698618Y-91714159D01*
X193728738Y-91506420D01*
X193729368Y-91499037D01*
X193730086Y-91471616D01*
X193751864Y-91404042D01*
X193806718Y-91358970D01*
X193877233Y-91350709D01*
X193945138Y-91385819D01*
X194022595Y-91463276D01*
X194056621Y-91525588D01*
X194059500Y-91552371D01*
X194059500Y-96198930D01*
X194058067Y-96217880D01*
X194054801Y-96239349D01*
X194055394Y-96246641D01*
X194055394Y-96246644D01*
X194059085Y-96292018D01*
X194059500Y-96302233D01*
X194059500Y-96310293D01*
X194059925Y-96313937D01*
X194062789Y-96338507D01*
X194063222Y-96342882D01*
X194067272Y-96392667D01*
X194069140Y-96415637D01*
X194071396Y-96422601D01*
X194072583Y-96428540D01*
X194073970Y-96434410D01*
X194074818Y-96441681D01*
X194076545Y-96446440D01*
X194072800Y-96516409D01*
X194031278Y-96573998D01*
X193965214Y-96599997D01*
X193918874Y-96592910D01*
X193918328Y-96594948D01*
X193894532Y-96588572D01*
X193831960Y-96580334D01*
X193817779Y-96582546D01*
X193814000Y-96595704D01*
X193814000Y-96736535D01*
X193793998Y-96804656D01*
X193740342Y-96851149D01*
X193670068Y-96861253D01*
X193605488Y-96831759D01*
X193588038Y-96813239D01*
X193543017Y-96754568D01*
X193537987Y-96748013D01*
X193531437Y-96742987D01*
X193531434Y-96742984D01*
X193463296Y-96690700D01*
X193421429Y-96633362D01*
X193416294Y-96603898D01*
X193409956Y-96582315D01*
X193378882Y-96577658D01*
X193379577Y-96573019D01*
X193342389Y-96567213D01*
X193307015Y-96542334D01*
X193303770Y-96539089D01*
X193291384Y-96524677D01*
X193282851Y-96513082D01*
X193282846Y-96513077D01*
X193278508Y-96507182D01*
X193272930Y-96502443D01*
X193272927Y-96502440D01*
X193238232Y-96472965D01*
X193230716Y-96466035D01*
X193225021Y-96460340D01*
X193218880Y-96455482D01*
X193202749Y-96442719D01*
X193199345Y-96439928D01*
X193149297Y-96397409D01*
X193149295Y-96397408D01*
X193143715Y-96392667D01*
X193137199Y-96389339D01*
X193132150Y-96385972D01*
X193127021Y-96382805D01*
X193121284Y-96378266D01*
X193055125Y-96347345D01*
X193051225Y-96345439D01*
X193050857Y-96345251D01*
X192986192Y-96312231D01*
X192979084Y-96310492D01*
X192973441Y-96308393D01*
X192967678Y-96306476D01*
X192961050Y-96303378D01*
X192930964Y-96297120D01*
X192920252Y-96294892D01*
X192889583Y-96288513D01*
X192885299Y-96287543D01*
X192814390Y-96270192D01*
X192808788Y-96269844D01*
X192808785Y-96269844D01*
X192803236Y-96269500D01*
X192803238Y-96269464D01*
X192799245Y-96269225D01*
X192795053Y-96268851D01*
X192787885Y-96267360D01*
X192721675Y-96269151D01*
X192710479Y-96269454D01*
X192707072Y-96269500D01*
X191804587Y-96269500D01*
X191730528Y-96245437D01*
X191724098Y-96240765D01*
X191724091Y-96240761D01*
X191718752Y-96236882D01*
X191712724Y-96234198D01*
X191712722Y-96234197D01*
X191550319Y-96161891D01*
X191550318Y-96161891D01*
X191544288Y-96159206D01*
X191450888Y-96139353D01*
X191363944Y-96120872D01*
X191363939Y-96120872D01*
X191357487Y-96119500D01*
X191166513Y-96119500D01*
X191160061Y-96120872D01*
X191160056Y-96120872D01*
X191073112Y-96139353D01*
X190979712Y-96159206D01*
X190973682Y-96161891D01*
X190973681Y-96161891D01*
X190811278Y-96234197D01*
X190811276Y-96234198D01*
X190805248Y-96236882D01*
X190799907Y-96240762D01*
X190799906Y-96240763D01*
X190793473Y-96245437D01*
X190650747Y-96349134D01*
X190646326Y-96354044D01*
X190646325Y-96354045D01*
X190542229Y-96469656D01*
X190522960Y-96491056D01*
X190470138Y-96582546D01*
X190457811Y-96603898D01*
X190427473Y-96656444D01*
X190368458Y-96838072D01*
X190367768Y-96844633D01*
X190367768Y-96844635D01*
X190354986Y-96966250D01*
X190348496Y-97028000D01*
X190349186Y-97034565D01*
X190367415Y-97208001D01*
X190368458Y-97217928D01*
X190427473Y-97399556D01*
X190430776Y-97405278D01*
X190430777Y-97405279D01*
X190440365Y-97421885D01*
X190522960Y-97564944D01*
X190527378Y-97569851D01*
X190527379Y-97569852D01*
X190627451Y-97680993D01*
X190650747Y-97706866D01*
X190656842Y-97711294D01*
X190799904Y-97815235D01*
X190805248Y-97819118D01*
X190811276Y-97821802D01*
X190811278Y-97821803D01*
X190960982Y-97888455D01*
X190979712Y-97896794D01*
X191058420Y-97913524D01*
X191160056Y-97935128D01*
X191160061Y-97935128D01*
X191166513Y-97936500D01*
X191357487Y-97936500D01*
X191363939Y-97935128D01*
X191363944Y-97935128D01*
X191465580Y-97913524D01*
X191544288Y-97896794D01*
X191563018Y-97888455D01*
X191712722Y-97821803D01*
X191712724Y-97821802D01*
X191718752Y-97819118D01*
X191724091Y-97815239D01*
X191724098Y-97815235D01*
X191730528Y-97810563D01*
X191804587Y-97786500D01*
X192313402Y-97786500D01*
X192381523Y-97806502D01*
X192400055Y-97821028D01*
X192455235Y-97873301D01*
X192476547Y-97893490D01*
X192629490Y-97982326D01*
X192636494Y-97984447D01*
X192636498Y-97984449D01*
X192767488Y-98024121D01*
X192798767Y-98033595D01*
X192975298Y-98044547D01*
X192982514Y-98043307D01*
X192982516Y-98043307D01*
X193142398Y-98015834D01*
X193142399Y-98015834D01*
X193149614Y-98014594D01*
X193156347Y-98011729D01*
X193156354Y-98011727D01*
X193218345Y-97985349D01*
X193251231Y-97976368D01*
X193262850Y-97974838D01*
X193265230Y-97973852D01*
X193327593Y-97973853D01*
X193333471Y-97975428D01*
X193396040Y-97983666D01*
X193410221Y-97981454D01*
X193418895Y-97951251D01*
X193420341Y-97951666D01*
X193434002Y-97905142D01*
X193463295Y-97873301D01*
X193531436Y-97821014D01*
X193531437Y-97821013D01*
X193537987Y-97815987D01*
X193543013Y-97809437D01*
X193543016Y-97809434D01*
X193588038Y-97750760D01*
X193645376Y-97708892D01*
X193716247Y-97704671D01*
X193778150Y-97739436D01*
X193811431Y-97802148D01*
X193814000Y-97827464D01*
X193814000Y-97967914D01*
X193818044Y-97981685D01*
X193831583Y-97983714D01*
X193894533Y-97975428D01*
X193910348Y-97971190D01*
X194042993Y-97916247D01*
X194057176Y-97908059D01*
X194171080Y-97820656D01*
X194182656Y-97809080D01*
X194270059Y-97695176D01*
X194278247Y-97680993D01*
X194333189Y-97548351D01*
X194337428Y-97532531D01*
X194341716Y-97499960D01*
X194339505Y-97485778D01*
X194326348Y-97482000D01*
X193838500Y-97482000D01*
X193770379Y-97461998D01*
X193723886Y-97408342D01*
X193712500Y-97356001D01*
X193712499Y-97208001D01*
X193732501Y-97139880D01*
X193786156Y-97093387D01*
X193838499Y-97082000D01*
X194325965Y-97082000D01*
X194341204Y-97077525D01*
X194352688Y-97064272D01*
X194412414Y-97025888D01*
X194483411Y-97025888D01*
X194537008Y-97057689D01*
X194992272Y-97512953D01*
X195021616Y-97559056D01*
X195045167Y-97623937D01*
X195049178Y-97630054D01*
X195049179Y-97630057D01*
X195138132Y-97765733D01*
X195142144Y-97771852D01*
X195270547Y-97893490D01*
X195423490Y-97982326D01*
X195430494Y-97984447D01*
X195430498Y-97984449D01*
X195561488Y-98024121D01*
X195592767Y-98033595D01*
X195769298Y-98044547D01*
X195776514Y-98043307D01*
X195776516Y-98043307D01*
X195936398Y-98015834D01*
X195936399Y-98015834D01*
X195943614Y-98014594D01*
X195950347Y-98011729D01*
X195950354Y-98011727D01*
X196012345Y-97985349D01*
X196045231Y-97976368D01*
X196056850Y-97974838D01*
X196058598Y-97974114D01*
X196117402Y-97974114D01*
X196119150Y-97974838D01*
X196127340Y-97975916D01*
X196127511Y-97975962D01*
X196140106Y-97980361D01*
X196143490Y-97982326D01*
X196150494Y-97984447D01*
X196150498Y-97984449D01*
X196281488Y-98024121D01*
X196312767Y-98033595D01*
X196489298Y-98044547D01*
X196496514Y-98043307D01*
X196496516Y-98043307D01*
X196656398Y-98015834D01*
X196656399Y-98015834D01*
X196663614Y-98014594D01*
X196826364Y-97945343D01*
X196832252Y-97941010D01*
X196832257Y-97941007D01*
X196962923Y-97844846D01*
X196968818Y-97840508D01*
X196973557Y-97834930D01*
X196973560Y-97834927D01*
X197078594Y-97711294D01*
X197078597Y-97711290D01*
X197083333Y-97705715D01*
X197163769Y-97548192D01*
X197167549Y-97532747D01*
X197189287Y-97443907D01*
X197205808Y-97376390D01*
X197206500Y-97365236D01*
X197206500Y-97034371D01*
X197226502Y-96966250D01*
X197243405Y-96945276D01*
X197635276Y-96553405D01*
X197697588Y-96519379D01*
X197724371Y-96516500D01*
X198158658Y-96516500D01*
X198226779Y-96536502D01*
X198273272Y-96590158D01*
X198283376Y-96660432D01*
X198254683Y-96724079D01*
X198235158Y-96747062D01*
X198140667Y-96858285D01*
X198060231Y-97015808D01*
X198058492Y-97022913D01*
X198058491Y-97022917D01*
X198055641Y-97034565D01*
X198018192Y-97187610D01*
X198017500Y-97198764D01*
X198017500Y-98799629D01*
X197997498Y-98867750D01*
X197980595Y-98888724D01*
X197349350Y-99519969D01*
X197343663Y-99525315D01*
X197297596Y-99566000D01*
X197280836Y-99589715D01*
X197260368Y-99618677D01*
X197256287Y-99624132D01*
X197216266Y-99674716D01*
X197213167Y-99681347D01*
X197212246Y-99683318D01*
X197200999Y-99702682D01*
X197195516Y-99710440D01*
X197171387Y-99770311D01*
X197168696Y-99776499D01*
X197141378Y-99834950D01*
X197139886Y-99842122D01*
X197139886Y-99842123D01*
X197139445Y-99844244D01*
X197132954Y-99865676D01*
X197129402Y-99874489D01*
X197128302Y-99881719D01*
X197128301Y-99881723D01*
X197119699Y-99938270D01*
X197118492Y-99944978D01*
X197106850Y-100000950D01*
X197105360Y-100008115D01*
X197105558Y-100015426D01*
X197105617Y-100017594D01*
X197104229Y-100039962D01*
X197102801Y-100049349D01*
X197103394Y-100056640D01*
X197103394Y-100056643D01*
X197108030Y-100113632D01*
X197108399Y-100120441D01*
X197110143Y-100184921D01*
X197112578Y-100194104D01*
X197116370Y-100216172D01*
X197117140Y-100225637D01*
X197137026Y-100287023D01*
X197138932Y-100293498D01*
X197155474Y-100355884D01*
X197158928Y-100362339D01*
X197159949Y-100364247D01*
X197168722Y-100384865D01*
X197169392Y-100386933D01*
X197171649Y-100393899D01*
X197175443Y-100400151D01*
X197175447Y-100400160D01*
X197205117Y-100449054D01*
X197208492Y-100454970D01*
X197238918Y-100511834D01*
X197243766Y-100517323D01*
X197243770Y-100517329D01*
X197245207Y-100518957D01*
X197258482Y-100536993D01*
X197263405Y-100545107D01*
X197270803Y-100553484D01*
X197309969Y-100592650D01*
X197315315Y-100598337D01*
X197356000Y-100644404D01*
X197361983Y-100648632D01*
X197366741Y-100651995D01*
X197383116Y-100665797D01*
X198086595Y-101369276D01*
X198120621Y-101431588D01*
X198123500Y-101458371D01*
X198123500Y-101754388D01*
X198103498Y-101822509D01*
X198071026Y-101856711D01*
X197939149Y-101951474D01*
X197935242Y-101955506D01*
X197798527Y-102096585D01*
X197789023Y-102106392D01*
X197668703Y-102285447D01*
X197581992Y-102482980D01*
X197531632Y-102692745D01*
X197519214Y-102908113D01*
X197545130Y-103122277D01*
X197608563Y-103328466D01*
X197707505Y-103520164D01*
X197710920Y-103524614D01*
X197835415Y-103686860D01*
X197835419Y-103686864D01*
X197838831Y-103691311D01*
X197842980Y-103695086D01*
X197994242Y-103832724D01*
X197994245Y-103832726D01*
X197998389Y-103836497D01*
X198003141Y-103839478D01*
X198176379Y-103948151D01*
X198176383Y-103948153D01*
X198181135Y-103951134D01*
X198381293Y-104031597D01*
X198592537Y-104075344D01*
X198597148Y-104075610D01*
X198597149Y-104075610D01*
X198645452Y-104078395D01*
X198645456Y-104078395D01*
X198647275Y-104078500D01*
X199086735Y-104078500D01*
X199089522Y-104078251D01*
X199089528Y-104078251D01*
X199156240Y-104072297D01*
X199246872Y-104064208D01*
X199373740Y-104029501D01*
X199449536Y-104008766D01*
X199449540Y-104008765D01*
X199454952Y-104007284D01*
X199649663Y-103914411D01*
X199824851Y-103788526D01*
X199923372Y-103686860D01*
X199971074Y-103637636D01*
X199971076Y-103637633D01*
X199974977Y-103633608D01*
X200095297Y-103454553D01*
X200182008Y-103257020D01*
X200232368Y-103047255D01*
X200244786Y-102831887D01*
X200218870Y-102617723D01*
X200202850Y-102565648D01*
X200157085Y-102416891D01*
X200155437Y-102411534D01*
X200105966Y-102315685D01*
X200059066Y-102224817D01*
X200059065Y-102224816D01*
X200056495Y-102219836D01*
X199995233Y-102139998D01*
X199928585Y-102053140D01*
X199928581Y-102053136D01*
X199925169Y-102048689D01*
X199819599Y-101952628D01*
X199769758Y-101907276D01*
X199769755Y-101907274D01*
X199765611Y-101903503D01*
X199699542Y-101862058D01*
X199652466Y-101808916D01*
X199640500Y-101755322D01*
X199640500Y-101159070D01*
X199641933Y-101140120D01*
X199644099Y-101125885D01*
X199644099Y-101125881D01*
X199645199Y-101118651D01*
X199640915Y-101065982D01*
X199640500Y-101055767D01*
X199640500Y-101047707D01*
X199637211Y-101019493D01*
X199636778Y-101015118D01*
X199631454Y-100949661D01*
X199631453Y-100949658D01*
X199630860Y-100942363D01*
X199628604Y-100935399D01*
X199627413Y-100929440D01*
X199626029Y-100923585D01*
X199625182Y-100916319D01*
X199600265Y-100847673D01*
X199598848Y-100843545D01*
X199578607Y-100781064D01*
X199578606Y-100781062D01*
X199576351Y-100774101D01*
X199572555Y-100767846D01*
X199570049Y-100762372D01*
X199567330Y-100756942D01*
X199564833Y-100750063D01*
X199524814Y-100689024D01*
X199522467Y-100685305D01*
X199484595Y-100622893D01*
X199477197Y-100614516D01*
X199477224Y-100614492D01*
X199474571Y-100611500D01*
X199471868Y-100608267D01*
X199467856Y-100602148D01*
X199411617Y-100548872D01*
X199409175Y-100546494D01*
X199027776Y-100165095D01*
X198993750Y-100102783D01*
X198998815Y-100031968D01*
X199027776Y-99986905D01*
X199264911Y-99749770D01*
X199279323Y-99737384D01*
X199290918Y-99728851D01*
X199290923Y-99728846D01*
X199296818Y-99724508D01*
X199301557Y-99718930D01*
X199301560Y-99718927D01*
X199331035Y-99684232D01*
X199337965Y-99676716D01*
X199343660Y-99671021D01*
X199361281Y-99648749D01*
X199364072Y-99645345D01*
X199406591Y-99595297D01*
X199406592Y-99595295D01*
X199411333Y-99589715D01*
X199414661Y-99583199D01*
X199418028Y-99578150D01*
X199421195Y-99573021D01*
X199425734Y-99567284D01*
X199456655Y-99501125D01*
X199458561Y-99497225D01*
X199491769Y-99432192D01*
X199493508Y-99425084D01*
X199495607Y-99419441D01*
X199497524Y-99413678D01*
X199500622Y-99407050D01*
X199515487Y-99335583D01*
X199516457Y-99331299D01*
X199532473Y-99265845D01*
X199533808Y-99260390D01*
X199534500Y-99249236D01*
X199534536Y-99249238D01*
X199534775Y-99245245D01*
X199535149Y-99241053D01*
X199536640Y-99233885D01*
X199534546Y-99156479D01*
X199534500Y-99153072D01*
X199534500Y-98151224D01*
X199554502Y-98083103D01*
X199608158Y-98036610D01*
X199639161Y-98027044D01*
X199704400Y-98015834D01*
X199704403Y-98015833D01*
X199711614Y-98014594D01*
X199874364Y-97945343D01*
X199880252Y-97941010D01*
X199880257Y-97941007D01*
X200010923Y-97844846D01*
X200016818Y-97840508D01*
X200021557Y-97834930D01*
X200021560Y-97834927D01*
X200126594Y-97711294D01*
X200126597Y-97711290D01*
X200131333Y-97705715D01*
X200211769Y-97548192D01*
X200215549Y-97532747D01*
X200237287Y-97443907D01*
X200253808Y-97376390D01*
X200254500Y-97365236D01*
X200254500Y-95931070D01*
X200255933Y-95912120D01*
X200258099Y-95897885D01*
X200258099Y-95897881D01*
X200259199Y-95890651D01*
X200254915Y-95837982D01*
X200254500Y-95827767D01*
X200254500Y-95819707D01*
X200251209Y-95791480D01*
X200250778Y-95787121D01*
X200245454Y-95721662D01*
X200245453Y-95721659D01*
X200244860Y-95714364D01*
X200242604Y-95707400D01*
X200241417Y-95701461D01*
X200240030Y-95695590D01*
X200239182Y-95688319D01*
X200236686Y-95681443D01*
X200236684Y-95681434D01*
X200214275Y-95619702D01*
X200212865Y-95615598D01*
X200190352Y-95546101D01*
X200186556Y-95539846D01*
X200184057Y-95534387D01*
X200181329Y-95528939D01*
X200178833Y-95522063D01*
X200138805Y-95461010D01*
X200136481Y-95457327D01*
X200101504Y-95399686D01*
X200101501Y-95399682D01*
X200098595Y-95394893D01*
X200091197Y-95386517D01*
X200091569Y-95386188D01*
X200091555Y-95386169D01*
X200091771Y-95386010D01*
X200091878Y-95385916D01*
X200061366Y-95325635D01*
X200068640Y-95255012D01*
X200112941Y-95199533D01*
X200180204Y-95176812D01*
X200190209Y-95176807D01*
X200193557Y-95176938D01*
X200214773Y-95177772D01*
X200306442Y-95164481D01*
X200426284Y-95147105D01*
X200426289Y-95147104D01*
X200431998Y-95146276D01*
X200437462Y-95144421D01*
X200437467Y-95144420D01*
X200634378Y-95077577D01*
X200639846Y-95075721D01*
X200831357Y-94968470D01*
X201000115Y-94828115D01*
X201140470Y-94659357D01*
X201182576Y-94584172D01*
X201185565Y-94578834D01*
X201236302Y-94529172D01*
X201305834Y-94514825D01*
X201372085Y-94540346D01*
X201414020Y-94597634D01*
X201421500Y-94640400D01*
X201421500Y-107823500D01*
X201401498Y-107891621D01*
X201347842Y-107938114D01*
X201295500Y-107949500D01*
X182244500Y-107949500D01*
X182176379Y-107929498D01*
X182129886Y-107875842D01*
X182118500Y-107823500D01*
X182118500Y-106512669D01*
X184282001Y-106512669D01*
X184282371Y-106519490D01*
X184287895Y-106570352D01*
X184291521Y-106585604D01*
X184336676Y-106706054D01*
X184345214Y-106721649D01*
X184421715Y-106823724D01*
X184434276Y-106836285D01*
X184536351Y-106912786D01*
X184551946Y-106921324D01*
X184672394Y-106966478D01*
X184687649Y-106970105D01*
X184738514Y-106975631D01*
X184745328Y-106976000D01*
X186417885Y-106976000D01*
X186433124Y-106971525D01*
X186434329Y-106970135D01*
X186436000Y-106962452D01*
X186436000Y-106957884D01*
X186944000Y-106957884D01*
X186948475Y-106973123D01*
X186949865Y-106974328D01*
X186957548Y-106975999D01*
X188634669Y-106975999D01*
X188641490Y-106975629D01*
X188692352Y-106970105D01*
X188707604Y-106966479D01*
X188828054Y-106921324D01*
X188843649Y-106912786D01*
X188945724Y-106836285D01*
X188958285Y-106823724D01*
X189034786Y-106721649D01*
X189043324Y-106706054D01*
X189088478Y-106585606D01*
X189092105Y-106570351D01*
X189097631Y-106519486D01*
X189098000Y-106512672D01*
X189098000Y-104840115D01*
X189093525Y-104824876D01*
X189092135Y-104823671D01*
X189084452Y-104822000D01*
X186962115Y-104822000D01*
X186946876Y-104826475D01*
X186945671Y-104827865D01*
X186944000Y-104835548D01*
X186944000Y-106957884D01*
X186436000Y-106957884D01*
X186436000Y-104840115D01*
X186431525Y-104824876D01*
X186430135Y-104823671D01*
X186422452Y-104822000D01*
X184300116Y-104822000D01*
X184284877Y-104826475D01*
X184283672Y-104827865D01*
X184282001Y-104835548D01*
X184282001Y-106512669D01*
X182118500Y-106512669D01*
X182118500Y-99568000D01*
X184176540Y-99568000D01*
X184196359Y-99883020D01*
X184255505Y-100193072D01*
X184353044Y-100493266D01*
X184354731Y-100496852D01*
X184354733Y-100496856D01*
X184485750Y-100775283D01*
X184485754Y-100775290D01*
X184487438Y-100778869D01*
X184656568Y-101045375D01*
X184857767Y-101288582D01*
X185087860Y-101504654D01*
X185343221Y-101690184D01*
X185346690Y-101692091D01*
X185346693Y-101692093D01*
X185591234Y-101826531D01*
X185619821Y-101842247D01*
X185623490Y-101843700D01*
X185623495Y-101843702D01*
X185808243Y-101916849D01*
X185864217Y-101960524D01*
X185887693Y-102027527D01*
X185871217Y-102096585D01*
X185820021Y-102145774D01*
X185761859Y-102160001D01*
X184745331Y-102160001D01*
X184738510Y-102160371D01*
X184687648Y-102165895D01*
X184672396Y-102169521D01*
X184551946Y-102214676D01*
X184536351Y-102223214D01*
X184434276Y-102299715D01*
X184421715Y-102312276D01*
X184345214Y-102414351D01*
X184336676Y-102429946D01*
X184291522Y-102550394D01*
X184287895Y-102565649D01*
X184282369Y-102616514D01*
X184282000Y-102623328D01*
X184282000Y-104295885D01*
X184286475Y-104311124D01*
X184287865Y-104312329D01*
X184295548Y-104314000D01*
X189079884Y-104314000D01*
X189095123Y-104309525D01*
X189096328Y-104308135D01*
X189097999Y-104300452D01*
X189097999Y-102623331D01*
X189097629Y-102616510D01*
X189092105Y-102565648D01*
X189088479Y-102550396D01*
X189043324Y-102429946D01*
X189034786Y-102414351D01*
X189000690Y-102368857D01*
X192443500Y-102368857D01*
X192443501Y-103371142D01*
X192454463Y-103476801D01*
X192510380Y-103644404D01*
X192603353Y-103794648D01*
X192728397Y-103919473D01*
X192878802Y-104012184D01*
X192885750Y-104014489D01*
X192885751Y-104014489D01*
X193039971Y-104065642D01*
X193039973Y-104065642D01*
X193046502Y-104067808D01*
X193150857Y-104078500D01*
X193796978Y-104078500D01*
X194453142Y-104078499D01*
X194456386Y-104078162D01*
X194456394Y-104078162D01*
X194503293Y-104073296D01*
X194558801Y-104067537D01*
X194726404Y-104011620D01*
X194876648Y-103918647D01*
X195001473Y-103793603D01*
X195094184Y-103643198D01*
X195149808Y-103475498D01*
X195160500Y-103371143D01*
X195160499Y-102368858D01*
X195149537Y-102263199D01*
X195093620Y-102095596D01*
X195000647Y-101945352D01*
X194875603Y-101820527D01*
X194856767Y-101808916D01*
X194838508Y-101797661D01*
X194725198Y-101727816D01*
X194718249Y-101725511D01*
X194564029Y-101674358D01*
X194564027Y-101674358D01*
X194557498Y-101672192D01*
X194453143Y-101661500D01*
X193807022Y-101661500D01*
X193150858Y-101661501D01*
X193147614Y-101661838D01*
X193147606Y-101661838D01*
X193100707Y-101666704D01*
X193045199Y-101672463D01*
X192877596Y-101728380D01*
X192727352Y-101821353D01*
X192602527Y-101946397D01*
X192509816Y-102096802D01*
X192507511Y-102103750D01*
X192507511Y-102103751D01*
X192467887Y-102223214D01*
X192454192Y-102264502D01*
X192443500Y-102368857D01*
X189000690Y-102368857D01*
X188958285Y-102312276D01*
X188945724Y-102299715D01*
X188843649Y-102223214D01*
X188828054Y-102214676D01*
X188707606Y-102169522D01*
X188692351Y-102165895D01*
X188641486Y-102160369D01*
X188634672Y-102160000D01*
X187618142Y-102160000D01*
X187550021Y-102139998D01*
X187503528Y-102086342D01*
X187493424Y-102016068D01*
X187522918Y-101951488D01*
X187571757Y-101916849D01*
X187710140Y-101862059D01*
X187756505Y-101843702D01*
X187756510Y-101843700D01*
X187760179Y-101842247D01*
X187788766Y-101826531D01*
X188033307Y-101692093D01*
X188033310Y-101692091D01*
X188036779Y-101690184D01*
X188292140Y-101504654D01*
X188522233Y-101288582D01*
X188723432Y-101045375D01*
X188892562Y-100778869D01*
X188894246Y-100775290D01*
X188894250Y-100775283D01*
X189025267Y-100496856D01*
X189025269Y-100496852D01*
X189026956Y-100493266D01*
X189124495Y-100193072D01*
X189183641Y-99883020D01*
X189203460Y-99568000D01*
X189183641Y-99252980D01*
X189124495Y-98942928D01*
X189026956Y-98642734D01*
X189025267Y-98639144D01*
X188894250Y-98360717D01*
X188894246Y-98360710D01*
X188892562Y-98357131D01*
X188723432Y-98090625D01*
X188594793Y-97935128D01*
X188524758Y-97850470D01*
X188524757Y-97850469D01*
X188522233Y-97847418D01*
X188508932Y-97834927D01*
X188407244Y-97739436D01*
X188292140Y-97631346D01*
X188281943Y-97623937D01*
X188167903Y-97541083D01*
X188036779Y-97445816D01*
X187968615Y-97408342D01*
X187763648Y-97295660D01*
X187763647Y-97295659D01*
X187760179Y-97293753D01*
X187756510Y-97292300D01*
X187756505Y-97292298D01*
X187470372Y-97179010D01*
X187470371Y-97179010D01*
X187466702Y-97177557D01*
X187160975Y-97099060D01*
X186847821Y-97059500D01*
X186532179Y-97059500D01*
X186219025Y-97099060D01*
X185913298Y-97177557D01*
X185909629Y-97179010D01*
X185909628Y-97179010D01*
X185623495Y-97292298D01*
X185623490Y-97292300D01*
X185619821Y-97293753D01*
X185616353Y-97295659D01*
X185616352Y-97295660D01*
X185411386Y-97408342D01*
X185343221Y-97445816D01*
X185212097Y-97541083D01*
X185098058Y-97623937D01*
X185087860Y-97631346D01*
X184972756Y-97739436D01*
X184871069Y-97834927D01*
X184857767Y-97847418D01*
X184855243Y-97850469D01*
X184855242Y-97850470D01*
X184785207Y-97935128D01*
X184656568Y-98090625D01*
X184487438Y-98357131D01*
X184485754Y-98360710D01*
X184485750Y-98360717D01*
X184354733Y-98639144D01*
X184353044Y-98642734D01*
X184255505Y-98942928D01*
X184196359Y-99252980D01*
X184176540Y-99568000D01*
X182118500Y-99568000D01*
X182118500Y-94869987D01*
X185108721Y-94869987D01*
X185117548Y-94881605D01*
X185340281Y-95043430D01*
X185346961Y-95047670D01*
X185616572Y-95195890D01*
X185623707Y-95199247D01*
X185909770Y-95312508D01*
X185917296Y-95314953D01*
X186215279Y-95391462D01*
X186223050Y-95392945D01*
X186528278Y-95431503D01*
X186536169Y-95432000D01*
X186843831Y-95432000D01*
X186851722Y-95431503D01*
X187156950Y-95392945D01*
X187164721Y-95391462D01*
X187462704Y-95314953D01*
X187470230Y-95312508D01*
X187756293Y-95199247D01*
X187763428Y-95195890D01*
X188033039Y-95047670D01*
X188039719Y-95043430D01*
X188122679Y-94983156D01*
X191893204Y-94983156D01*
X191903086Y-94995645D01*
X191955124Y-95030416D01*
X191965234Y-95035906D01*
X192156208Y-95117955D01*
X192167151Y-95121510D01*
X192369873Y-95167382D01*
X192381283Y-95168884D01*
X192588978Y-95177044D01*
X192600460Y-95176442D01*
X192806159Y-95146618D01*
X192817355Y-95143930D01*
X193014174Y-95077118D01*
X193024681Y-95072440D01*
X193163069Y-94994938D01*
X193172934Y-94984860D01*
X193169978Y-94977188D01*
X192544812Y-94352022D01*
X192530868Y-94344408D01*
X192529035Y-94344539D01*
X192522420Y-94348790D01*
X191899400Y-94971810D01*
X191893204Y-94983156D01*
X188122679Y-94983156D01*
X188262823Y-94881336D01*
X188271246Y-94870413D01*
X188264342Y-94857552D01*
X186702812Y-93296022D01*
X186688868Y-93288408D01*
X186687035Y-93288539D01*
X186680420Y-93292790D01*
X185115334Y-94857876D01*
X185108721Y-94869987D01*
X182118500Y-94869987D01*
X182118500Y-92927958D01*
X184177290Y-92927958D01*
X184196607Y-93234994D01*
X184197600Y-93242855D01*
X184255246Y-93545046D01*
X184257217Y-93552723D01*
X184352284Y-93845309D01*
X184355199Y-93852672D01*
X184486189Y-94131041D01*
X184490001Y-94137974D01*
X184654851Y-94397736D01*
X184659495Y-94404129D01*
X184734497Y-94494790D01*
X184747014Y-94503245D01*
X184757752Y-94497038D01*
X186317978Y-92936812D01*
X186324356Y-92925132D01*
X187054408Y-92925132D01*
X187054539Y-92926965D01*
X187058790Y-92933580D01*
X188621145Y-94495935D01*
X188634407Y-94503177D01*
X188644512Y-94495988D01*
X188720505Y-94404129D01*
X188725149Y-94397736D01*
X188889999Y-94137974D01*
X188893811Y-94131041D01*
X188976940Y-93954382D01*
X191333875Y-93954382D01*
X191347469Y-94161783D01*
X191349270Y-94173153D01*
X191400432Y-94374606D01*
X191404273Y-94385453D01*
X191491293Y-94574215D01*
X191497042Y-94584172D01*
X191516225Y-94611315D01*
X191526814Y-94619703D01*
X191540115Y-94612675D01*
X192159978Y-93992812D01*
X192166356Y-93981132D01*
X192896408Y-93981132D01*
X192896539Y-93982965D01*
X192900790Y-93989580D01*
X193525274Y-94614064D01*
X193537654Y-94620824D01*
X193544234Y-94615898D01*
X193624440Y-94472681D01*
X193629118Y-94462174D01*
X193695930Y-94265355D01*
X193698618Y-94254159D01*
X193728738Y-94046420D01*
X193729368Y-94039037D01*
X193730817Y-93983704D01*
X193730574Y-93976305D01*
X193711367Y-93767272D01*
X193709269Y-93755951D01*
X193652852Y-93555913D01*
X193648727Y-93545166D01*
X193556796Y-93358748D01*
X193550786Y-93348941D01*
X193549434Y-93347130D01*
X193538176Y-93338681D01*
X193525757Y-93345453D01*
X192904022Y-93967188D01*
X192896408Y-93981132D01*
X192166356Y-93981132D01*
X192167592Y-93978868D01*
X192167461Y-93977035D01*
X192163210Y-93970420D01*
X191537011Y-93344221D01*
X191524631Y-93337461D01*
X191518665Y-93341927D01*
X191427037Y-93516085D01*
X191422636Y-93526709D01*
X191360998Y-93725215D01*
X191358606Y-93736469D01*
X191334176Y-93942881D01*
X191333875Y-93954382D01*
X188976940Y-93954382D01*
X189024801Y-93852672D01*
X189027716Y-93845309D01*
X189122783Y-93552723D01*
X189124754Y-93545046D01*
X189182400Y-93242855D01*
X189183393Y-93234994D01*
X189199683Y-92976075D01*
X191892187Y-92976075D01*
X191895673Y-92984463D01*
X192519188Y-93607978D01*
X192533132Y-93615592D01*
X192534965Y-93615461D01*
X192541580Y-93611210D01*
X193164489Y-92988301D01*
X193171249Y-92975921D01*
X193165219Y-92967866D01*
X193081180Y-92914841D01*
X193070932Y-92909620D01*
X192877876Y-92832599D01*
X192866095Y-92829109D01*
X192806461Y-92790583D01*
X192777122Y-92725932D01*
X192787394Y-92655682D01*
X192834015Y-92602138D01*
X192861380Y-92588985D01*
X193014174Y-92537118D01*
X193024681Y-92532440D01*
X193163069Y-92454938D01*
X193172934Y-92444860D01*
X193169978Y-92437188D01*
X192544812Y-91812022D01*
X192530868Y-91804408D01*
X192529035Y-91804539D01*
X192522420Y-91808790D01*
X191899400Y-92431810D01*
X191893204Y-92443156D01*
X191903086Y-92455645D01*
X191955124Y-92490416D01*
X191965234Y-92495906D01*
X192156208Y-92577955D01*
X192167149Y-92581510D01*
X192190029Y-92586687D01*
X192252055Y-92621230D01*
X192285559Y-92683824D01*
X192279905Y-92754595D01*
X192236886Y-92811074D01*
X192205831Y-92827792D01*
X192021270Y-92895880D01*
X192010892Y-92900830D01*
X191901785Y-92965742D01*
X191892187Y-92976075D01*
X189199683Y-92976075D01*
X189202710Y-92927958D01*
X189202710Y-92920042D01*
X189183393Y-92613006D01*
X189182400Y-92605145D01*
X189124754Y-92302954D01*
X189122783Y-92295277D01*
X189027716Y-92002691D01*
X189024801Y-91995328D01*
X188893811Y-91716959D01*
X188889999Y-91710026D01*
X188725149Y-91450264D01*
X188720505Y-91443871D01*
X188696109Y-91414382D01*
X191333875Y-91414382D01*
X191347469Y-91621783D01*
X191349270Y-91633153D01*
X191400432Y-91834606D01*
X191404273Y-91845453D01*
X191491293Y-92034215D01*
X191497042Y-92044172D01*
X191516225Y-92071315D01*
X191526814Y-92079703D01*
X191540115Y-92072675D01*
X192159978Y-91452812D01*
X192167592Y-91438868D01*
X192167461Y-91437035D01*
X192163210Y-91430420D01*
X191537011Y-90804221D01*
X191524631Y-90797461D01*
X191518665Y-90801927D01*
X191427037Y-90976085D01*
X191422636Y-90986709D01*
X191360998Y-91185215D01*
X191358606Y-91196469D01*
X191334176Y-91402881D01*
X191333875Y-91414382D01*
X188696109Y-91414382D01*
X188645503Y-91353210D01*
X188632986Y-91344755D01*
X188622248Y-91350962D01*
X187062022Y-92911188D01*
X187054408Y-92925132D01*
X186324356Y-92925132D01*
X186325592Y-92922868D01*
X186325461Y-92921035D01*
X186321210Y-92914420D01*
X184758855Y-91352065D01*
X184745593Y-91344823D01*
X184735488Y-91352012D01*
X184659495Y-91443871D01*
X184654851Y-91450264D01*
X184490001Y-91710026D01*
X184486189Y-91716959D01*
X184355199Y-91995328D01*
X184352284Y-92002691D01*
X184257217Y-92295277D01*
X184255246Y-92302954D01*
X184197600Y-92605145D01*
X184196607Y-92613006D01*
X184177290Y-92920042D01*
X184177290Y-92927958D01*
X182118500Y-92927958D01*
X182118500Y-89872134D01*
X184281500Y-89872134D01*
X184288255Y-89934316D01*
X184339385Y-90070705D01*
X184426739Y-90187261D01*
X184543295Y-90274615D01*
X184679684Y-90325745D01*
X184741866Y-90332500D01*
X185761954Y-90332500D01*
X185830075Y-90352502D01*
X185876568Y-90406158D01*
X185886672Y-90476432D01*
X185857178Y-90541012D01*
X185808338Y-90575652D01*
X185623707Y-90648753D01*
X185616572Y-90652110D01*
X185346961Y-90800330D01*
X185340281Y-90804570D01*
X185117177Y-90966664D01*
X185108754Y-90977587D01*
X185115658Y-90990448D01*
X186677188Y-92551978D01*
X186691132Y-92559592D01*
X186692965Y-92559461D01*
X186699580Y-92555210D01*
X188264666Y-90990124D01*
X188271279Y-90978013D01*
X188262452Y-90966395D01*
X188039719Y-90804570D01*
X188033039Y-90800330D01*
X187763428Y-90652110D01*
X187756293Y-90648753D01*
X187571662Y-90575652D01*
X187515688Y-90531977D01*
X187492212Y-90464974D01*
X187508688Y-90395916D01*
X187559883Y-90346727D01*
X187618046Y-90332500D01*
X188638134Y-90332500D01*
X188700316Y-90325745D01*
X188836705Y-90274615D01*
X188953261Y-90187261D01*
X189040615Y-90070705D01*
X189091745Y-89934316D01*
X189098500Y-89872134D01*
X189098500Y-85975866D01*
X189091745Y-85913684D01*
X189040615Y-85777295D01*
X188953261Y-85660739D01*
X188836705Y-85573385D01*
X188700316Y-85522255D01*
X188638134Y-85515500D01*
X184741866Y-85515500D01*
X184679684Y-85522255D01*
X184543295Y-85573385D01*
X184426739Y-85660739D01*
X184339385Y-85777295D01*
X184288255Y-85913684D01*
X184281500Y-85975866D01*
X184281500Y-89872134D01*
X182118500Y-89872134D01*
X182118500Y-83692500D01*
X182138502Y-83624379D01*
X182192158Y-83577886D01*
X182244500Y-83566500D01*
X201295500Y-83566500D01*
X201363621Y-83586502D01*
G37*
%TD.AperFunction*%
%TD*%
M02*
